<svg width="500" height="500" viewBox="0 0 500 500" fill="none" xmlns="http://www.w3.org/2000/svg">
<path d="M391.5 346C371.167 410 326.167 438.333 256.5 431C186.833 423.667 130 391.667 86 335C42 278.333 42.5 222.667 87.5 168C132.5 113.333 186.167 86.8333 248.5 88.5C310.833 90.1667 355.333 117.5 382 170.5C408.667 223.5 411.833 282 391.5 346Z" fill="url(#paint0_linear_5_3)"/>
<path d="M104.256 266.691C104.256 267.013 104.169 267.31 103.996 267.582C103.823 267.829 103.773 268.126 103.848 268.473C103.749 268.646 103.613 268.782 103.439 268.881C103.291 268.98 103.242 269.165 103.291 269.438C102.771 269.71 102.289 270.056 101.844 270.477C101.423 270.872 100.965 271.256 100.471 271.627C100.174 271.85 99.9141 272.01 99.6914 272.109C99.4935 272.184 99.2461 272.307 98.9492 272.48L98.0215 273.074C97.6009 273.297 97.168 273.52 96.7227 273.742C96.3021 273.965 95.9186 274.249 95.5723 274.596C95.0527 274.62 94.5208 274.757 93.9766 275.004C93.4323 275.276 92.9128 275.511 92.418 275.709C92.2201 275.783 92.0221 275.833 91.8242 275.857C91.6263 275.907 91.4284 275.981 91.2305 276.08L90.6367 276.34C90.2904 276.513 89.8822 276.686 89.4121 276.859C88.9421 277.057 88.5215 277.156 88.1504 277.156C87.9277 277.255 87.7422 277.428 87.5938 277.676C86.7773 277.948 85.9362 278.158 85.0703 278.307C84.2044 278.455 83.3633 278.69 82.5469 279.012C82.2747 279.135 81.9902 279.296 81.6934 279.494C81.4212 279.717 81.1243 279.816 80.8027 279.791C80.7285 279.915 80.679 280.063 80.6543 280.236C80.6296 280.41 80.5924 280.583 80.543 280.756H80.4316C80.3327 280.756 80.2832 280.706 80.2832 280.607C80.3079 280.508 80.2708 280.459 80.1719 280.459C80.0977 280.459 80.0482 280.471 80.0234 280.496C79.7018 280.57 79.3926 280.632 79.0957 280.682C78.8236 280.731 78.5143 280.756 78.168 280.756C77.9701 280.756 77.6484 280.731 77.2031 280.682C76.7826 280.632 76.4733 280.57 76.2754 280.496C76.127 280.422 76.0033 280.286 75.9043 280.088C75.8053 279.89 75.7064 279.68 75.6074 279.457C75.5332 279.234 75.459 278.999 75.3848 278.752C75.3353 278.529 75.2858 278.344 75.2363 278.195C75.3105 277.923 75.4342 277.701 75.6074 277.527C75.7806 277.354 75.9167 277.132 76.0156 276.859C76.2383 276.835 76.4609 276.798 76.6836 276.748C76.9062 276.699 77.1289 276.686 77.3516 276.711C78.1185 276.488 78.8854 276.266 79.6523 276.043C80.444 275.845 81.2233 275.635 81.9902 275.412C82.7572 275.189 83.5117 274.942 84.2539 274.67C84.9961 274.398 85.7135 274.064 86.4062 273.668H87.1855C87.6309 273.421 88.1257 273.21 88.6699 273.037C89.2142 272.864 89.6595 272.579 90.0059 272.184C90.8223 272.01 91.6758 271.775 92.5664 271.479C93.457 271.182 94.1992 270.712 94.793 270.068C95.1641 270.019 95.4857 269.932 95.7578 269.809C96.0299 269.66 96.2897 269.512 96.5371 269.363L97.2793 268.881C97.5267 268.708 97.8112 268.572 98.1328 268.473C98.3307 268.275 98.5163 268.064 98.6895 267.842C98.8626 267.619 99.0729 267.434 99.3203 267.285C99.2461 266.889 99.0482 266.592 98.7266 266.395C98.4049 266.197 98.1204 265.962 97.873 265.689H97.0566C96.4134 265.294 95.7207 264.997 94.9785 264.799C94.2611 264.576 93.5436 264.341 92.8262 264.094C92.7767 264.069 92.7148 264.057 92.6406 264.057C92.4674 264.057 92.3561 264.118 92.3066 264.242C92.2819 264.366 92.1829 264.415 92.0098 264.391C91.7871 264.242 91.5521 264.156 91.3047 264.131C91.0573 264.081 90.7975 264.057 90.5254 264.057C90.179 264.057 89.8327 264.081 89.4863 264.131C89.1647 264.156 88.8307 264.168 88.4844 264.168C88.3112 264.168 88.138 264.156 87.9648 264.131C87.7917 264.106 87.6185 264.044 87.4453 263.945H86.9629C86.4434 263.945 85.9238 263.97 85.4043 264.02C84.9095 264.044 84.4147 264.057 83.9199 264.057C83.6478 264.057 83.388 264.057 83.1406 264.057C82.8932 264.032 82.6458 263.995 82.3984 263.945C81.8789 264.193 81.3223 264.366 80.7285 264.465C80.1348 264.564 79.5163 264.638 78.873 264.688C78.2546 264.737 77.6361 264.786 77.0176 264.836C76.3991 264.861 75.8053 264.923 75.2363 265.021C75.0879 264.997 74.9395 264.984 74.791 264.984C74.6673 264.96 74.5436 264.947 74.4199 264.947C74.2962 264.947 74.1602 264.96 74.0117 264.984C73.888 264.984 73.7643 264.997 73.6406 265.021C73.319 264.675 72.9232 264.428 72.4531 264.279C72.0078 264.106 71.5625 263.995 71.1172 263.945C70.7708 263.525 70.5111 263.104 70.3379 262.684C70.1895 262.238 70.0905 261.743 70.041 261.199H70.1895C70.3626 261.199 70.4368 261.113 70.4121 260.939C70.4121 260.766 70.474 260.618 70.5977 260.494C70.7214 260.346 70.8822 260.247 71.0801 260.197C71.3027 260.123 71.513 260.049 71.7109 259.975C71.9089 259.9 72.0944 259.814 72.2676 259.715C72.4655 259.591 72.6139 259.406 72.7129 259.158H73.1953C73.2943 259.158 73.3932 259.171 73.4922 259.195C73.6159 259.195 73.7148 259.232 73.7891 259.307C73.888 259.208 74.0117 259.121 74.1602 259.047C74.3086 258.973 74.4447 258.898 74.5684 258.824C74.7168 258.75 74.8405 258.663 74.9395 258.564C75.0384 258.465 75.1003 258.317 75.125 258.119C75.1497 258.193 75.2116 258.23 75.3105 258.23C75.4095 258.23 75.4961 258.206 75.5703 258.156C75.6693 258.107 75.7806 258.094 75.9043 258.119C76.028 257.773 76.2383 257.587 76.5352 257.562C76.832 257.538 77.1042 257.451 77.3516 257.303C77.5247 257.204 77.6855 257.092 77.834 256.969C77.9824 256.82 78.1432 256.684 78.3164 256.561L80.543 254.854L83.957 252.256C85.0951 251.39 86.2578 250.586 87.4453 249.844C87.4948 249.695 87.569 249.584 87.668 249.51C87.7669 249.436 87.8659 249.361 87.9648 249.287C88.0638 249.188 88.138 249.089 88.1875 248.99C88.2617 248.891 88.2865 248.743 88.2617 248.545C88.6081 248.471 88.8678 248.335 89.041 248.137C89.2389 247.939 89.4121 247.729 89.5605 247.506C89.709 247.258 89.8574 247.023 90.0059 246.801C90.179 246.553 90.4017 246.368 90.6738 246.244C90.6491 246.17 90.6367 246.059 90.6367 245.91C90.6367 245.712 90.6491 245.514 90.6738 245.316C90.7233 245.118 90.8223 244.945 90.9707 244.797C90.748 244.277 90.3646 243.906 89.8203 243.684C89.276 243.436 88.7565 243.226 88.2617 243.053H88.1504C88.0267 243.053 87.9525 243.115 87.9277 243.238C87.9277 243.337 87.8659 243.411 87.7422 243.461C87.3464 243.362 86.901 243.312 86.4062 243.312C85.9115 243.312 85.4167 243.35 84.9219 243.424C84.4518 243.498 83.9694 243.51 83.4746 243.461C83.4004 243.56 83.3138 243.659 83.2148 243.758C83.1406 243.857 83.0417 243.943 82.918 244.018C82.3984 244.042 81.8789 244.117 81.3594 244.24L79.8008 244.611L78.9473 244.797C78.8236 244.846 78.737 244.933 78.6875 245.057C78.638 245.18 78.6009 245.316 78.5762 245.465C78.4277 245.44 78.3288 245.378 78.2793 245.279C78.2546 245.18 78.168 245.106 78.0195 245.057C77.4505 245.403 76.832 245.688 76.1641 245.91C75.5208 246.133 74.9395 246.479 74.4199 246.949C74.2467 246.751 73.9993 246.652 73.6777 246.652C73.4056 246.652 73.1087 246.739 72.7871 246.912C72.4655 247.085 72.2676 247.308 72.1934 247.58C71.946 247.531 71.7604 247.506 71.6367 247.506C71.3646 247.506 71.1296 247.58 70.9316 247.729C70.7585 247.877 70.5853 248.05 70.4121 248.248C70.2389 248.421 70.0534 248.594 69.8555 248.768C69.6576 248.941 69.4102 249.04 69.1133 249.064C69.1133 249.188 69.1133 249.324 69.1133 249.473C69.138 249.596 69.1504 249.732 69.1504 249.881C69.1504 250.994 69.0885 252.107 68.9648 253.221C68.8411 254.309 68.7793 255.41 68.7793 256.523C68.7793 256.771 68.7917 257.018 68.8164 257.266C68.8411 257.488 68.8535 257.736 68.8535 258.008C68.8535 258.082 68.7917 258.243 68.668 258.49C68.569 258.738 68.4948 258.923 68.4453 259.047C68.5443 259.319 68.5814 259.591 68.5566 259.863C68.5566 260.135 68.6185 260.395 68.7422 260.643C68.5195 260.84 68.4082 261.113 68.4082 261.459C68.4082 261.607 68.4082 261.756 68.4082 261.904C68.4329 262.053 68.4453 262.201 68.4453 262.35V262.795C68.3711 263.29 68.3216 263.797 68.2969 264.316C68.2721 264.811 68.2598 265.306 68.2598 265.801C68.2598 266.023 68.2598 266.407 68.2598 266.951C68.2845 267.471 68.3216 268.064 68.3711 268.732C68.4206 269.376 68.4948 270.044 68.5938 270.736C68.6927 271.429 68.8164 272.072 68.9648 272.666C69.138 273.235 69.3483 273.705 69.5957 274.076C69.8431 274.447 70.14 274.633 70.4863 274.633C70.5605 274.633 70.6471 274.62 70.7461 274.596C70.8698 274.571 70.9316 274.509 70.9316 274.41C70.9316 274.311 70.9069 274.225 70.8574 274.15C70.8327 274.076 70.8203 273.99 70.8203 273.891L70.8574 273.816C71.0553 273.915 71.2656 273.977 71.4883 274.002C71.7357 274.027 71.9831 274.051 72.2305 274.076C72.4779 274.101 72.7129 274.138 72.9355 274.188C73.1582 274.262 73.3561 274.398 73.5293 274.596C73.4303 274.794 73.3809 275.004 73.3809 275.227C73.3809 275.523 73.4551 275.796 73.6035 276.043C73.752 276.315 73.8509 276.587 73.9004 276.859C73.4303 277.008 72.9974 277.169 72.6016 277.342C72.2305 277.54 71.8594 277.713 71.4883 277.861C71.1172 278.035 70.7214 278.183 70.3008 278.307C69.8802 278.455 69.3978 278.554 68.8535 278.604C68.5072 278.381 68.2103 278.183 67.9629 278.01C67.7155 277.837 67.3815 277.725 66.9609 277.676C66.3177 276.81 65.7858 275.833 65.3652 274.744C64.9447 273.68 64.6107 272.567 64.3633 271.404C64.1406 270.242 63.9798 269.079 63.8809 267.916C63.8066 266.729 63.7695 265.615 63.7695 264.576C63.7695 263.438 63.8066 262.312 63.8809 261.199C63.9798 260.061 64.1035 258.923 64.252 257.785C64.3014 257.439 64.3509 257.092 64.4004 256.746C64.4499 256.375 64.4993 256.016 64.5488 255.67C64.5983 255.546 64.6354 255.41 64.6602 255.262C64.7096 255.089 64.7344 254.94 64.7344 254.816C64.7344 254.396 64.722 253.975 64.6973 253.555C64.6725 253.134 64.6602 252.726 64.6602 252.33C64.6602 251.712 64.6973 251.081 64.7715 250.438C64.7962 250.314 64.8333 250.153 64.8828 249.955C64.957 249.757 64.9941 249.584 64.9941 249.436C64.9941 249.238 64.9447 249.102 64.8457 249.027C64.7467 248.953 64.6602 248.829 64.5859 248.656C64.6602 248.409 64.722 248.174 64.7715 247.951C64.821 247.704 64.8457 247.456 64.8457 247.209C64.8457 246.739 64.7591 246.331 64.5859 245.984C64.7096 245.341 64.8952 244.71 65.1426 244.092C65.39 243.473 65.8229 243.003 66.4414 242.682C66.9362 242.706 67.431 242.756 67.9258 242.83C68.4453 242.904 68.8906 243.115 69.2617 243.461C69.4349 243.362 69.6328 243.3 69.8555 243.275L70.5605 243.201C70.8079 243.176 71.0306 243.139 71.2285 243.09C71.4264 243.016 71.5996 242.88 71.748 242.682C72.2428 242.583 72.7747 242.447 73.3438 242.273C73.9128 242.076 74.4076 241.853 74.8281 241.605H75.6445C75.8177 241.482 76.0156 241.395 76.2383 241.346L76.9434 241.16C77.1908 241.086 77.4134 241.012 77.6113 240.938C77.834 240.863 78.0072 240.74 78.1309 240.566H78.2793C78.8483 240.566 79.4049 240.443 79.9492 240.195C80.4935 239.948 81.0254 239.725 81.5449 239.527C81.6686 239.478 81.8542 239.391 82.1016 239.268C82.3737 239.144 82.5592 239.082 82.6582 239.082C83.0046 239.033 83.3509 239.008 83.6973 239.008C84.0436 238.983 84.39 238.934 84.7363 238.859C85.528 238.736 86.3073 238.6 87.0742 238.451C87.8659 238.278 88.6576 238.191 89.4492 238.191C89.7214 238.191 89.9688 238.204 90.1914 238.229C90.4388 238.229 90.6986 238.241 90.9707 238.266C90.9954 238.365 91.0573 238.451 91.1562 238.525C91.2552 238.575 91.3418 238.624 91.416 238.674C91.515 238.723 91.6016 238.798 91.6758 238.896C91.75 238.971 91.7747 239.082 91.75 239.23C91.7995 239.28 91.849 239.305 91.8984 239.305C91.9727 239.305 92.0345 239.268 92.084 239.193C92.1582 239.119 92.2572 239.082 92.3809 239.082H92.5664C92.888 239.428 93.1973 239.762 93.4941 240.084C93.8158 240.381 94.2116 240.628 94.6816 240.826C94.8796 241.568 95.1146 242.298 95.3867 243.016C95.6589 243.733 95.7949 244.5 95.7949 245.316C95.7949 245.811 95.7207 246.294 95.5723 246.764C95.2259 246.937 94.9785 247.209 94.8301 247.58C94.6816 247.951 94.5456 248.31 94.4219 248.656C93.7292 249.003 93.1478 249.46 92.6777 250.029C92.2077 250.598 91.7253 251.167 91.2305 251.736H90.6367C90.5378 251.736 90.4635 251.773 90.4141 251.848L90.0801 252.219C89.8574 252.417 89.61 252.615 89.3379 252.812C89.0905 253.01 88.9049 253.27 88.7812 253.592C88.0143 254.012 87.2721 254.482 86.5547 255.002C85.862 255.521 85.194 256.066 84.5508 256.635C84.2786 256.857 84.0065 257.117 83.7344 257.414C83.4622 257.686 83.1901 257.921 82.918 258.119C82.7695 258.243 82.5964 258.354 82.3984 258.453C82.2253 258.527 82.0645 258.626 81.916 258.75C81.5944 258.997 81.2975 259.257 81.0254 259.529C80.7533 259.777 80.4688 260.012 80.1719 260.234C81.2852 260.185 82.4108 260.16 83.5488 260.16C84.6868 260.135 85.8125 260.111 86.9258 260.086C87.4948 260.086 88.0514 260.074 88.5957 260.049C89.14 259.999 89.6966 259.975 90.2656 259.975C90.3646 259.975 90.4512 259.999 90.5254 260.049C90.5996 260.074 90.6862 260.098 90.7852 260.123C91.2057 260.197 91.5768 260.284 91.8984 260.383C93.0859 260.605 94.2734 260.803 95.4609 260.977C96.6484 261.15 97.8112 261.434 98.9492 261.83C99.2708 261.954 99.5059 262.09 99.6543 262.238C99.8275 262.387 100.124 262.424 100.545 262.35C100.891 262.696 101.262 262.968 101.658 263.166C102.079 263.364 102.499 263.537 102.92 263.686C103.242 264.18 103.538 264.65 103.811 265.096C104.107 265.541 104.256 266.073 104.256 266.691ZM126.484 263.463C126.484 263.735 126.385 263.945 126.188 264.094C125.99 264.217 125.891 264.391 125.891 264.613C125.891 264.712 125.94 264.836 126.039 264.984C125.693 264.984 125.458 265.096 125.334 265.318C125.21 265.541 125.087 265.788 124.963 266.061H124.48C124.357 266.061 124.258 266.085 124.184 266.135C124.109 266.184 124.035 266.258 123.961 266.357C123.911 266.432 123.837 266.555 123.738 266.729C123.268 266.827 122.811 266.988 122.365 267.211C121.945 267.409 121.524 267.632 121.104 267.879C120.708 268.102 120.299 268.337 119.879 268.584C119.458 268.807 119.025 268.992 118.58 269.141C118.357 269.512 118.036 269.809 117.615 270.031H117.504C117.38 270.056 117.269 270.044 117.17 269.994C117.096 269.92 116.997 269.883 116.873 269.883C116.799 269.883 116.749 269.895 116.725 269.92C115.982 270.415 115.154 270.662 114.238 270.662C113.991 270.662 113.756 270.65 113.533 270.625C113.311 270.576 113.076 270.551 112.828 270.551C112.754 270.551 112.704 270.576 112.68 270.625L112.605 270.773C112.581 270.823 112.544 270.872 112.494 270.922C112.469 270.971 112.383 270.996 112.234 270.996C111.962 270.996 111.69 270.959 111.418 270.885C111.146 270.811 110.861 270.798 110.564 270.848C109.995 270.526 109.55 270.217 109.229 269.92C108.907 269.623 108.61 269.178 108.338 268.584C108.214 268.312 108.041 268.052 107.818 267.805C107.62 267.557 107.472 267.285 107.373 266.988C107.348 266.889 107.311 266.716 107.262 266.469C107.212 266.197 107.163 265.912 107.113 265.615C107.064 265.318 107.014 265.034 106.965 264.762C106.94 264.49 106.928 264.304 106.928 264.205C106.928 263.908 106.94 263.624 106.965 263.352C107.014 263.055 107.064 262.758 107.113 262.461C107.262 261.521 107.361 260.581 107.41 259.641C107.484 258.676 107.695 257.748 108.041 256.857C107.992 256.585 107.967 256.326 107.967 256.078V255.262C107.967 254.792 107.905 254.396 107.781 254.074C107.979 253.753 108.078 253.394 108.078 252.998C108.078 252.553 107.893 252.293 107.521 252.219V252.107C107.521 251.588 107.348 251.18 107.002 250.883C107.002 250.017 107.212 249.374 107.633 248.953C108.078 248.508 108.66 248.124 109.377 247.803C109.476 247.654 109.513 247.531 109.488 247.432C109.661 247.481 109.822 247.531 109.971 247.58C110.119 247.63 110.268 247.654 110.416 247.654C110.663 247.654 110.886 247.617 111.084 247.543C111.158 247.84 111.344 248.025 111.641 248.1C111.962 248.149 112.222 248.223 112.42 248.322V248.805C112.42 249.572 112.605 250.301 112.977 250.994C112.878 251.192 112.816 251.402 112.791 251.625C112.766 251.848 112.754 252.058 112.754 252.256C112.754 252.553 112.766 252.85 112.791 253.146C112.816 253.443 112.828 253.728 112.828 254C112.828 254.297 112.791 254.594 112.717 254.891C112.667 255.188 112.531 255.447 112.309 255.67C112.284 255.992 112.259 256.363 112.234 256.783C112.234 257.179 112.21 257.587 112.16 258.008C112.135 258.428 112.074 258.837 111.975 259.232C111.876 259.628 111.727 259.95 111.529 260.197C111.505 260.568 111.48 260.952 111.455 261.348C111.455 261.719 111.455 262.077 111.455 262.424C111.455 262.968 111.48 263.611 111.529 264.354C111.604 265.096 111.777 265.714 112.049 266.209C112.173 266.407 112.408 266.555 112.754 266.654C113.125 266.753 113.422 266.803 113.645 266.803C113.917 266.803 114.189 266.766 114.461 266.691C114.758 266.592 114.968 266.432 115.092 266.209C115.24 266.234 115.339 266.308 115.389 266.432C115.438 266.555 115.525 266.654 115.648 266.729C117.059 266.135 118.469 265.566 119.879 265.021C121.289 264.477 122.674 263.846 124.035 263.129C124.233 263.228 124.443 263.277 124.666 263.277C124.913 263.277 125.161 263.253 125.408 263.203C125.656 263.154 125.903 263.129 126.15 263.129H126.41C126.46 263.277 126.484 263.389 126.484 263.463ZM149.715 251.514C149.566 251.736 149.48 251.984 149.455 252.256C149.43 252.528 149.418 252.775 149.418 252.998C149.418 253.295 149.418 253.592 149.418 253.889C149.443 254.161 149.455 254.433 149.455 254.705V255.262C149.406 255.435 149.331 255.608 149.232 255.781C149.133 255.954 149.059 256.128 149.01 256.301C148.663 257.216 148.49 258.132 148.49 259.047V259.121C148.367 259.418 148.243 259.69 148.119 259.938C148.02 260.185 147.921 260.432 147.822 260.68C147.723 260.902 147.649 261.15 147.6 261.422C147.55 261.669 147.538 261.966 147.562 262.312C147.216 263.178 146.758 263.97 146.189 264.688C145.62 265.38 145.064 266.098 144.52 266.84C144 267.038 143.518 267.298 143.072 267.619C142.652 267.941 142.243 268.299 141.848 268.695C141.081 268.943 140.326 269.227 139.584 269.549C138.842 269.87 138.174 270.303 137.58 270.848C137.11 270.897 136.64 270.971 136.17 271.07C135.7 271.169 135.242 271.318 134.797 271.516H134.352C134.129 271.516 133.968 271.466 133.869 271.367C133.548 271.54 133.214 271.664 132.867 271.738C132.521 271.788 132.174 271.812 131.828 271.812C131.383 271.812 130.938 271.788 130.492 271.738C130.072 271.664 129.639 271.59 129.193 271.516C128.946 271.169 128.6 270.91 128.154 270.736C127.709 270.538 127.313 270.353 126.967 270.18C126.249 269.19 125.73 268.238 125.408 267.322C125.087 266.382 124.753 265.331 124.406 264.168C124.456 263.822 124.542 263.488 124.666 263.166C124.79 262.82 124.839 262.449 124.814 262.053C125.26 260.766 125.841 259.604 126.559 258.564C127.301 257.501 128.142 256.486 129.082 255.521C129.082 255.373 129.107 255.249 129.156 255.15C129.23 255.051 129.243 254.903 129.193 254.705C129.218 254.73 129.268 254.742 129.342 254.742C129.54 254.742 129.663 254.693 129.713 254.594C129.762 254.47 129.775 254.334 129.75 254.186C130.641 253.617 131.445 252.961 132.162 252.219C132.904 251.477 133.745 250.858 134.686 250.363C134.76 250.141 134.883 249.955 135.057 249.807C135.23 249.658 135.366 249.485 135.465 249.287C136.257 249.064 136.974 248.73 137.617 248.285C138.26 247.84 138.941 247.444 139.658 247.098C140.054 246.875 140.425 246.727 140.771 246.652C141.143 246.553 141.538 246.454 141.959 246.355C142.107 246.306 142.243 246.269 142.367 246.244C142.491 246.219 142.627 246.207 142.775 246.207C143.221 246.207 143.654 246.294 144.074 246.467C144.495 246.615 144.928 246.689 145.373 246.689C145.497 246.689 145.596 246.689 145.67 246.689C145.769 246.665 145.868 246.64 145.967 246.615C146.387 247.135 146.919 247.531 147.562 247.803C147.711 248.174 147.884 248.495 148.082 248.768C148.305 249.04 148.527 249.312 148.75 249.584C148.973 249.831 149.171 250.116 149.344 250.438C149.542 250.734 149.665 251.093 149.715 251.514ZM146.004 253.443C146.004 253.32 145.992 253.208 145.967 253.109C145.719 253.035 145.484 252.936 145.262 252.812C145.039 252.689 144.792 252.627 144.52 252.627C144.346 252.627 144.173 252.664 144 252.738C143.975 252.565 143.901 252.441 143.777 252.367C143.678 252.293 143.555 252.231 143.406 252.182C143.283 252.107 143.146 252.058 142.998 252.033C142.874 251.984 142.763 251.91 142.664 251.811C142.59 251.613 142.503 251.415 142.404 251.217C142.33 250.994 142.182 250.833 141.959 250.734C141.736 250.957 141.477 251.143 141.18 251.291C140.883 251.415 140.574 251.538 140.252 251.662C139.955 251.786 139.658 251.934 139.361 252.107C139.089 252.281 138.854 252.491 138.656 252.738H137.988C137.84 253.01 137.63 253.221 137.357 253.369C137.085 253.493 136.85 253.678 136.652 253.926C136.257 254.124 135.885 254.371 135.539 254.668C135.217 254.94 134.896 255.237 134.574 255.559C134.253 255.855 133.931 256.165 133.609 256.486C133.312 256.808 132.991 257.105 132.645 257.377C132.323 258.07 131.964 258.676 131.568 259.195C131.197 259.69 130.839 260.197 130.492 260.717C130.171 261.236 129.886 261.805 129.639 262.424C129.416 263.018 129.305 263.76 129.305 264.65V265.021C129.305 265.145 129.317 265.269 129.342 265.393C129.663 265.739 129.923 266.11 130.121 266.506C130.344 266.902 130.702 267.186 131.197 267.359C131.692 267.557 132.212 267.644 132.756 267.619C133.325 267.594 133.869 267.656 134.389 267.805C135.576 267.582 136.714 267.223 137.803 266.729C138.916 266.209 139.967 265.59 140.957 264.873C141.105 264.749 141.279 264.626 141.477 264.502C141.674 264.354 141.835 264.205 141.959 264.057C142.083 263.933 142.182 263.797 142.256 263.648C142.355 263.5 142.454 263.364 142.553 263.24C142.751 262.919 142.973 262.597 143.221 262.275C143.468 261.954 143.728 261.657 144 261.385C144.124 260.84 144.285 260.321 144.482 259.826C144.68 259.307 144.878 258.799 145.076 258.305C145.274 257.81 145.435 257.303 145.559 256.783C145.707 256.264 145.781 255.719 145.781 255.15C145.781 255.027 145.769 254.891 145.744 254.742C145.744 254.594 145.732 254.458 145.707 254.334C145.905 254.062 146.004 253.765 146.004 253.443ZM180.107 246.838C180.107 247.061 180.058 247.271 179.959 247.469L179.699 248.025C179.625 248.199 179.551 248.384 179.477 248.582C179.402 248.78 179.378 249.015 179.402 249.287C179.056 249.683 178.71 250.066 178.363 250.438C178.017 250.809 177.708 251.229 177.436 251.699C177.163 251.674 176.953 251.736 176.805 251.885C176.681 252.033 176.582 252.231 176.508 252.479C175.988 252.652 175.531 252.924 175.135 253.295C174.739 253.641 174.393 254.025 174.096 254.445C172.785 254.99 171.56 255.658 170.422 256.449C169.284 257.241 168.245 258.169 167.305 259.232C167.75 259.232 168.183 259.282 168.604 259.381C169.049 259.48 169.482 259.591 169.902 259.715C170.348 259.814 170.781 259.913 171.201 260.012C171.622 260.086 172.055 260.098 172.5 260.049C172.822 260.346 173.18 260.593 173.576 260.791C173.997 260.989 174.405 261.174 174.801 261.348C175.221 261.521 175.617 261.719 175.988 261.941C176.384 262.164 176.73 262.436 177.027 262.758C177.027 262.807 177.015 262.857 176.99 262.906C176.99 262.931 176.99 262.968 176.99 263.018C176.99 263.215 177.04 263.413 177.139 263.611C177.238 263.785 177.287 263.97 177.287 264.168C177.163 264.366 177.052 264.576 176.953 264.799C176.854 265.021 176.73 265.219 176.582 265.393C176.458 265.566 176.31 265.714 176.137 265.838C175.964 265.962 175.729 266.036 175.432 266.061C175.308 266.481 175.11 266.815 174.838 267.062C174.566 267.285 174.257 267.495 173.91 267.693C173.589 267.867 173.267 268.052 172.945 268.25C172.624 268.423 172.352 268.658 172.129 268.955C171.387 269.128 170.657 269.376 169.939 269.697C169.247 269.994 168.628 270.427 168.084 270.996C167.713 271.046 167.329 271.107 166.934 271.182C166.562 271.231 166.191 271.256 165.82 271.256C165.301 271.256 164.88 271.157 164.559 270.959C164.237 270.736 164.051 270.34 164.002 269.771C164.076 269.598 164.188 269.45 164.336 269.326L164.818 268.955C164.992 268.831 165.14 268.708 165.264 268.584C165.412 268.436 165.523 268.262 165.598 268.064C165.647 268.064 165.709 268.077 165.783 268.102C165.857 268.102 165.932 268.102 166.006 268.102C166.303 268.102 166.538 268.04 166.711 267.916C166.884 267.792 167.045 267.669 167.193 267.545C167.367 267.421 167.552 267.31 167.75 267.211C167.948 267.112 168.208 267.075 168.529 267.1C168.702 266.778 168.962 266.543 169.309 266.395C169.655 266.221 170.014 266.073 170.385 265.949C170.756 265.801 171.102 265.64 171.424 265.467C171.77 265.269 172.005 264.984 172.129 264.613C172.005 264.415 171.844 264.267 171.646 264.168C171.449 264.044 171.226 263.945 170.979 263.871L170.273 263.648C170.051 263.574 169.853 263.488 169.68 263.389C169.408 263.463 169.148 263.5 168.9 263.5C168.381 263.5 167.874 263.451 167.379 263.352C166.884 263.253 166.377 263.203 165.857 263.203C165.387 263.203 164.979 263.265 164.633 263.389C164.509 263.364 164.373 263.327 164.225 263.277C164.101 263.228 163.977 263.178 163.854 263.129C163.285 263.352 162.691 263.463 162.072 263.463H159.66C159.462 263.463 159.264 263.488 159.066 263.537C158.794 264.032 158.658 264.564 158.658 265.133C158.658 265.553 158.72 265.962 158.844 266.357C158.967 266.729 159.091 267.124 159.215 267.545C159.71 267.99 160.167 268.522 160.588 269.141C161.008 269.734 161.219 270.39 161.219 271.107C161.219 271.281 161.206 271.417 161.182 271.516C160.934 271.342 160.613 271.256 160.217 271.256C159.87 271.256 159.536 271.305 159.215 271.404C158.918 271.503 158.596 271.577 158.25 271.627C157.978 271.503 157.693 271.38 157.396 271.256C157.1 271.107 156.815 270.934 156.543 270.736C156.345 270.316 156.147 269.92 155.949 269.549C155.751 269.153 155.504 268.782 155.207 268.436V268.287C155.207 267.421 155.133 266.568 154.984 265.727C154.861 264.885 154.799 264.032 154.799 263.166C154.799 262.77 154.811 262.374 154.836 261.979C154.885 261.558 155.009 261.174 155.207 260.828C155.133 260.234 155.096 259.616 155.096 258.973C155.096 257.686 155.17 256.4 155.318 255.113C155.467 253.827 155.541 252.516 155.541 251.18C155.541 250.908 155.529 250.635 155.504 250.363C155.504 250.091 155.492 249.819 155.467 249.547H155.318C154.997 249.547 154.688 249.596 154.391 249.695C154.094 249.77 153.797 249.856 153.5 249.955C153.203 250.054 152.894 250.153 152.572 250.252C152.251 250.326 151.929 250.363 151.607 250.363C151.41 250.462 151.249 250.561 151.125 250.66C151.001 250.759 150.878 250.846 150.754 250.92C150.63 250.994 150.494 251.056 150.346 251.105C150.173 251.155 149.975 251.167 149.752 251.143C149.48 251.316 149.27 251.452 149.121 251.551C148.948 251.625 148.713 251.712 148.416 251.811C148.268 251.86 148.144 251.934 148.045 252.033L147.748 252.293C147.649 252.367 147.538 252.441 147.414 252.516C147.29 252.59 147.13 252.627 146.932 252.627C146.758 252.627 146.635 252.615 146.561 252.59C146.412 252.466 146.288 252.318 146.189 252.145C146.066 251.971 145.954 251.811 145.855 251.662C145.732 251.489 145.608 251.34 145.484 251.217C145.336 251.068 145.163 250.957 144.965 250.883C145.064 250.759 145.113 250.66 145.113 250.586C145.089 250.487 145.076 250.376 145.076 250.252C145.076 250.178 145.089 250.128 145.113 250.104C145.237 249.658 145.46 249.312 145.781 249.064C146.103 248.792 146.462 248.582 146.857 248.434C147.253 248.26 147.661 248.112 148.082 247.988C148.478 247.865 148.849 247.716 149.195 247.543C150.16 247.568 151.038 247.481 151.83 247.283C152.622 247.061 153.438 246.751 154.279 246.355C154.428 246.43 154.576 246.467 154.725 246.467C154.848 246.467 154.972 246.454 155.096 246.43L155.467 246.355C155.764 246.108 156.085 245.947 156.432 245.873C156.778 245.799 157.124 245.737 157.471 245.688C157.817 245.638 158.151 245.589 158.473 245.539C158.794 245.465 159.079 245.329 159.326 245.131H159.475C160.068 245.131 160.662 245.032 161.256 244.834C161.874 244.636 162.468 244.562 163.037 244.611C163.532 244.339 163.99 244.166 164.41 244.092C164.831 244.018 165.313 243.98 165.857 243.98C165.981 243.98 166.13 243.931 166.303 243.832C166.476 243.708 166.686 243.646 166.934 243.646C166.983 243.646 167.02 243.659 167.045 243.684C167.094 243.684 167.144 243.684 167.193 243.684C167.416 243.684 167.564 243.609 167.639 243.461C167.738 243.312 167.973 243.238 168.344 243.238C168.517 243.238 168.678 243.251 168.826 243.275C168.975 243.275 169.123 243.275 169.271 243.275C169.445 243.275 169.556 243.214 169.605 243.09C169.655 242.941 169.766 242.88 169.939 242.904C170.014 243.003 170.137 243.053 170.311 243.053C170.484 243.028 170.62 243.016 170.719 243.016C170.892 243.016 170.991 243.065 171.016 243.164C171.411 242.917 171.844 242.756 172.314 242.682C172.809 242.607 173.279 242.57 173.725 242.57C173.898 242.57 174.071 242.583 174.244 242.607C174.417 242.607 174.603 242.62 174.801 242.645C175.023 242.496 175.283 242.422 175.58 242.422C175.753 242.422 176.025 242.496 176.396 242.645C176.792 242.793 177.201 242.966 177.621 243.164C178.042 243.362 178.425 243.572 178.771 243.795C179.118 244.018 179.328 244.203 179.402 244.352C179.452 244.401 179.477 244.512 179.477 244.686C179.501 244.859 179.538 245.007 179.588 245.131C179.712 245.428 179.823 245.712 179.922 245.984C180.046 246.232 180.107 246.516 180.107 246.838ZM175.988 247.246C175.988 247.197 175.976 247.147 175.951 247.098C175.951 247.023 175.951 246.962 175.951 246.912C175.827 246.764 175.654 246.652 175.432 246.578C175.234 246.504 175.011 246.442 174.764 246.393C174.541 246.343 174.306 246.306 174.059 246.281C173.836 246.232 173.638 246.17 173.465 246.096C172.945 246.269 172.376 246.355 171.758 246.355C171.189 246.355 170.682 246.269 170.236 246.096C170.014 246.318 169.729 246.492 169.383 246.615C169.036 246.739 168.665 246.838 168.27 246.912C167.898 246.962 167.515 246.999 167.119 247.023C166.748 247.023 166.414 247.023 166.117 247.023C166.018 247.023 165.845 247.098 165.598 247.246C165.35 247.395 165.128 247.469 164.93 247.469C164.781 247.469 164.645 247.407 164.521 247.283C164.299 247.456 163.99 247.605 163.594 247.729C163.198 247.852 162.79 247.964 162.369 248.062C161.949 248.137 161.516 248.223 161.07 248.322C160.65 248.421 160.291 248.52 159.994 248.619C159.697 249.262 159.536 249.967 159.512 250.734C159.487 251.477 159.475 252.206 159.475 252.924C159.475 253.344 159.45 253.753 159.4 254.148C159.351 254.544 159.326 254.952 159.326 255.373C159.326 255.571 159.339 255.781 159.363 256.004C159.388 256.202 159.462 256.4 159.586 256.598C159.388 256.746 159.252 256.944 159.178 257.191C159.128 257.414 159.104 257.637 159.104 257.859C159.104 258.132 159.128 258.379 159.178 258.602C159.227 258.824 159.277 259.035 159.326 259.232C160.118 259.158 160.835 259.01 161.479 258.787C162.146 258.564 162.765 258.292 163.334 257.971C163.928 257.649 164.497 257.278 165.041 256.857C165.585 256.437 166.154 255.992 166.748 255.521C166.995 255.472 167.193 255.398 167.342 255.299C167.515 255.2 167.725 255.15 167.973 255.15C168.072 254.804 168.257 254.569 168.529 254.445C168.801 254.297 169.012 254.087 169.16 253.814C169.457 253.74 169.704 253.641 169.902 253.518C170.125 253.369 170.335 253.233 170.533 253.109C170.731 252.961 170.941 252.825 171.164 252.701C171.411 252.577 171.684 252.503 171.98 252.479C172.401 251.984 172.834 251.489 173.279 250.994C173.749 250.499 174.294 250.104 174.912 249.807C175.011 249.559 175.122 249.349 175.246 249.176C175.37 248.978 175.481 248.792 175.58 248.619C175.704 248.421 175.803 248.223 175.877 248.025C175.951 247.803 175.988 247.543 175.988 247.246ZM210.426 281.832C210.352 282.253 210.178 282.549 209.906 282.723C209.659 282.921 209.424 283.193 209.201 283.539H209.053C208.805 283.539 208.558 283.564 208.311 283.613C208.088 283.663 207.853 283.725 207.605 283.799C207.482 283.749 207.333 283.712 207.16 283.688C206.987 283.663 206.876 283.576 206.826 283.428C206.628 283.527 206.356 283.576 206.01 283.576C205.441 283.576 204.896 283.415 204.377 283.094C203.882 282.772 203.363 282.525 202.818 282.352C202.67 282.055 202.484 281.783 202.262 281.535C202.064 281.312 201.854 281.09 201.631 280.867C201.433 280.645 201.235 280.41 201.037 280.162C200.839 279.915 200.678 279.618 200.555 279.271C200.505 279.123 200.443 279.036 200.369 279.012C200.295 278.987 200.184 278.987 200.035 279.012C200.06 278.74 200.023 278.505 199.924 278.307C199.85 278.109 199.664 277.985 199.367 277.936C199.367 277.614 199.318 277.342 199.219 277.119C199.12 276.896 198.996 276.699 198.848 276.525C198.724 276.377 198.576 276.216 198.402 276.043C198.254 275.87 198.13 275.66 198.031 275.412C197.809 275.363 197.586 275.326 197.363 275.301C197.165 275.301 196.943 275.301 196.695 275.301C195.508 275.301 194.357 275.523 193.244 275.969C193.12 276.018 192.984 276.08 192.836 276.154C192.712 276.229 192.589 276.29 192.465 276.34C192.415 276.34 192.366 276.34 192.316 276.34C192.292 276.365 192.255 276.377 192.205 276.377C192.032 276.377 191.871 276.34 191.723 276.266C191.574 276.216 191.413 276.191 191.24 276.191C191.166 276.191 191.079 276.204 190.98 276.229C190.906 276.278 190.832 276.315 190.758 276.34C190.387 276.464 190.04 276.538 189.719 276.562C188.704 276.76 187.628 276.909 186.49 277.008C185.377 277.107 184.35 277.367 183.41 277.787C183.212 277.886 183.089 278.035 183.039 278.232C182.99 278.455 182.977 278.665 183.002 278.863C182.73 279.061 182.52 279.321 182.371 279.643C182.247 279.964 182.124 280.298 182 280.645C181.901 281.016 181.79 281.374 181.666 281.721C181.542 282.067 181.369 282.364 181.146 282.611C181.221 282.76 181.258 282.921 181.258 283.094C181.258 283.465 181.134 283.836 180.887 284.207C180.639 284.578 180.454 284.937 180.33 285.283C180.206 285.63 180.107 285.964 180.033 286.285C179.959 286.632 179.848 286.941 179.699 287.213C179.551 287.485 179.353 287.708 179.105 287.881C178.833 288.054 178.462 288.141 177.992 288.141C177.547 288.141 177.163 288.054 176.842 287.881C176.52 287.708 176.26 287.485 176.062 287.213C175.865 286.941 175.704 286.619 175.58 286.248C175.456 285.877 175.357 285.506 175.283 285.135C175.555 284.59 175.815 284.12 176.062 283.725C176.31 283.329 176.495 282.822 176.619 282.203C177.064 281.882 177.398 281.486 177.621 281.016C177.819 280.57 177.93 280.076 177.955 279.531C178.227 279.358 178.425 279.123 178.549 278.826C178.648 278.554 178.71 278.257 178.734 277.936C178.141 277.886 177.522 277.837 176.879 277.787C176.211 277.738 175.592 277.614 175.023 277.416C175.023 277.367 175.036 277.317 175.061 277.268C175.061 277.218 175.061 277.169 175.061 277.119C175.061 276.798 174.986 276.501 174.838 276.229C174.689 275.981 174.615 275.709 174.615 275.412V275.115C174.813 274.917 174.999 274.707 175.172 274.484C175.32 274.286 175.481 274.101 175.654 273.928C175.827 273.755 176.025 273.606 176.248 273.482C176.471 273.383 176.755 273.334 177.102 273.334C177.572 273.334 178.029 273.359 178.475 273.408C178.92 273.482 179.378 273.52 179.848 273.52C180.169 273.52 180.503 273.482 180.85 273.408C181.394 272.295 181.876 271.169 182.297 270.031C182.717 268.868 183.039 267.693 183.262 266.506C183.435 266.258 183.596 265.974 183.744 265.652C183.893 265.306 184.004 264.947 184.078 264.576C184.177 264.205 184.239 263.846 184.264 263.5C184.313 263.129 184.338 262.795 184.338 262.498C184.61 262.176 184.796 261.781 184.895 261.311C185.018 260.84 185.117 260.358 185.191 259.863C185.266 259.344 185.34 258.837 185.414 258.342C185.513 257.847 185.686 257.414 185.934 257.043V256.709C185.958 256.338 185.921 256.004 185.822 255.707C185.946 255.658 186.02 255.546 186.045 255.373C186.07 255.2 186.119 255.051 186.193 254.928C186.218 253.79 186.342 252.676 186.564 251.588C186.787 250.475 186.973 249.361 187.121 248.248V248.137C187.121 248.013 187.072 247.951 186.973 247.951C186.898 247.926 186.861 247.852 186.861 247.729C186.861 247.506 186.886 247.209 186.936 246.838C187.01 246.467 187.059 246.158 187.084 245.91C187.232 244.574 187.307 243.251 187.307 241.939C187.307 240.826 187.27 239.725 187.195 238.637C187.121 237.548 187.047 236.447 186.973 235.334L187.27 234.889C187.368 234.74 187.455 234.592 187.529 234.443C187.777 234.344 187.975 234.245 188.123 234.146C188.296 234.023 188.519 233.961 188.791 233.961C188.865 233.961 188.927 233.973 188.977 233.998C189.026 233.998 189.076 233.998 189.125 233.998C189.273 234.097 189.385 234.233 189.459 234.406C189.558 234.579 189.645 234.74 189.719 234.889C189.818 235.037 189.941 235.161 190.09 235.26C190.238 235.359 190.449 235.383 190.721 235.334C190.844 236.027 191.191 236.385 191.76 236.41C191.883 236.757 192.032 237.103 192.205 237.449C192.403 237.796 192.663 238.068 192.984 238.266C192.96 238.365 192.947 238.501 192.947 238.674C192.947 239.02 193.021 239.354 193.17 239.676C193.343 239.997 193.553 240.294 193.801 240.566V240.641C193.801 240.913 193.702 241.098 193.504 241.197C193.727 241.445 193.887 241.742 193.986 242.088C194.085 242.434 194.172 242.793 194.246 243.164C194.32 243.51 194.407 243.844 194.506 244.166C194.63 244.488 194.827 244.735 195.1 244.908V245.02C195.1 245.143 195.05 245.217 194.951 245.242C194.877 245.267 194.84 245.341 194.84 245.465C195.285 246.281 195.594 247.172 195.768 248.137C195.941 249.102 196.163 250.029 196.436 250.92C196.535 251.019 196.646 251.081 196.77 251.105C196.918 251.13 197.029 251.192 197.104 251.291C196.955 251.39 196.881 251.563 196.881 251.811C196.881 252.058 196.819 252.243 196.695 252.367C196.893 252.54 196.98 252.8 196.955 253.146C196.955 253.468 197.054 253.703 197.252 253.852V254C197.252 254.099 197.227 254.186 197.178 254.26C197.128 254.309 197.104 254.383 197.104 254.482V254.631C197.301 255.497 197.45 256.363 197.549 257.229C197.673 258.094 197.796 258.96 197.92 259.826C198.044 260.692 198.18 261.558 198.328 262.424C198.477 263.265 198.687 264.094 198.959 264.91C198.984 264.935 198.996 264.972 198.996 265.021C198.996 265.145 198.947 265.219 198.848 265.244C198.749 265.244 198.699 265.306 198.699 265.43C198.699 265.553 198.736 265.702 198.811 265.875C198.91 266.023 199.008 266.147 199.107 266.246C199.083 266.345 199.07 266.493 199.07 266.691C199.07 267.062 199.132 267.421 199.256 267.768C199.404 268.114 199.553 268.46 199.701 268.807C199.874 269.128 200.023 269.475 200.146 269.846C200.27 270.217 200.32 270.613 200.295 271.033C200.443 271.256 200.629 271.441 200.852 271.59C201.099 271.738 201.346 271.874 201.594 271.998C201.841 272.122 202.064 272.27 202.262 272.443C202.484 272.617 202.633 272.852 202.707 273.148C202.509 273.322 202.373 273.532 202.299 273.779C202.225 274.051 202.089 274.286 201.891 274.484C202.064 274.905 202.262 275.288 202.484 275.635C202.732 276.006 202.979 276.365 203.227 276.711L204.006 277.75C204.278 278.096 204.513 278.467 204.711 278.863C204.983 278.863 205.181 278.938 205.305 279.086C205.428 279.234 205.626 279.296 205.898 279.271C205.997 279.469 206.035 279.692 206.01 279.939C206.505 279.766 206.999 279.68 207.494 279.68C207.766 279.68 208.014 279.692 208.236 279.717C208.484 279.742 208.731 279.754 208.979 279.754C209.275 279.754 209.535 279.717 209.758 279.643C209.857 279.791 209.931 279.952 209.98 280.125C210.03 280.323 210.067 280.521 210.092 280.719L210.203 281.312C210.253 281.51 210.327 281.684 210.426 281.832ZM196.436 271.553C196.089 269.846 195.73 268.151 195.359 266.469C195.013 264.762 194.704 263.042 194.432 261.311C194.283 260.395 194.172 259.48 194.098 258.564C194.023 257.649 193.924 256.746 193.801 255.855C193.702 254.94 193.553 254.037 193.355 253.146C193.182 252.256 192.923 251.378 192.576 250.512V250.438C192.576 250.363 192.601 250.301 192.65 250.252C192.7 250.202 192.725 250.116 192.725 249.992V249.844C192.403 249.621 192.18 249.312 192.057 248.916C191.933 248.495 191.822 248.062 191.723 247.617C191.648 247.147 191.537 246.702 191.389 246.281C191.265 245.836 191.042 245.465 190.721 245.168C190.597 246.603 190.461 248.038 190.312 249.473C190.189 250.883 190.102 252.305 190.053 253.74C189.805 253.889 189.645 254.136 189.57 254.482C189.496 254.829 189.459 255.138 189.459 255.41C189.459 255.608 189.471 255.818 189.496 256.041C189.521 256.239 189.57 256.449 189.645 256.672C189.199 257.785 188.878 258.936 188.68 260.123C188.482 261.286 188.259 262.449 188.012 263.611C187.987 263.686 187.938 263.859 187.863 264.131C187.814 264.378 187.752 264.638 187.678 264.91C187.604 265.182 187.542 265.43 187.492 265.652C187.443 265.85 187.418 265.962 187.418 265.986C187.393 266.16 187.381 266.333 187.381 266.506C187.406 266.679 187.418 266.852 187.418 267.025L186.861 267.582C186.762 268.522 186.577 269.438 186.305 270.328C186.057 271.194 185.798 272.085 185.525 273C185.699 273.025 185.859 273.037 186.008 273.037C186.181 273.062 186.354 273.074 186.527 273.074C187.319 273.074 188.111 273.025 188.902 272.926C189.719 272.802 190.523 272.691 191.314 272.592C191.587 272.542 191.871 272.505 192.168 272.48C192.465 272.431 192.749 272.406 193.021 272.406C193.145 272.382 193.294 272.382 193.467 272.406C193.64 272.406 193.788 272.394 193.912 272.369C194.11 272.32 194.234 272.245 194.283 272.146C194.357 272.023 194.493 271.949 194.691 271.924C194.84 271.998 195.013 272.035 195.211 272.035C195.434 272.035 195.644 271.986 195.842 271.887C196.04 271.788 196.238 271.676 196.436 271.553ZM229.426 248.619C229.376 248.916 229.302 249.176 229.203 249.398C229.129 249.596 229.117 249.868 229.166 250.215C228.919 250.24 228.721 250.326 228.572 250.475C228.449 250.598 228.337 250.747 228.238 250.92C228.164 251.093 228.077 251.279 227.979 251.477C227.904 251.65 227.805 251.811 227.682 251.959C227.88 252.85 227.991 253.753 228.016 254.668C228.04 255.583 228.102 256.486 228.201 257.377C228.325 258.515 228.51 259.641 228.758 260.754C229.03 261.842 229.166 262.956 229.166 264.094C229.166 264.44 229.154 264.762 229.129 265.059C229.129 265.355 229.129 265.665 229.129 265.986C229.129 266.184 229.129 266.395 229.129 266.617C229.154 266.815 229.166 267.013 229.166 267.211C229.166 267.928 229.067 268.646 228.869 269.363C228.696 270.081 228.56 270.798 228.461 271.516C228.164 271.788 227.904 272.085 227.682 272.406C227.484 272.728 227.273 273.025 227.051 273.297C226.828 273.569 226.568 273.804 226.271 274.002C225.975 274.225 225.604 274.373 225.158 274.447C225.084 274.695 224.936 274.88 224.713 275.004C224.515 275.128 224.342 275.301 224.193 275.523H224.119C223.501 275.523 222.969 275.437 222.523 275.264C222.078 275.09 221.658 274.893 221.262 274.67C220.891 274.447 220.507 274.212 220.111 273.965C219.715 273.717 219.258 273.52 218.738 273.371C218.046 272.802 217.415 272.184 216.846 271.516C216.277 270.823 215.633 270.204 214.916 269.66C214.743 269.165 214.508 268.757 214.211 268.436C213.939 268.114 213.667 267.743 213.395 267.322C213.271 267.149 213.172 266.988 213.098 266.84C213.048 266.691 212.974 266.518 212.875 266.32C212.801 266.122 212.677 265.986 212.504 265.912C212.355 265.838 212.219 265.751 212.096 265.652C211.898 264.885 211.613 264.18 211.242 263.537C210.871 262.894 210.438 262.275 209.943 261.682C209.795 261.954 209.671 262.251 209.572 262.572C209.498 262.869 209.424 263.178 209.35 263.5C209.275 263.797 209.176 264.106 209.053 264.428C208.954 264.725 208.818 264.997 208.645 265.244V265.355C208.645 265.479 208.694 265.553 208.793 265.578C208.892 265.603 208.941 265.677 208.941 265.801C208.941 265.826 208.929 265.85 208.904 265.875C208.904 265.9 208.904 265.924 208.904 265.949C208.781 266.048 208.682 266.172 208.607 266.32C208.558 266.469 208.434 266.555 208.236 266.58C208.261 266.704 208.273 266.827 208.273 266.951V267.285C208.273 268.003 208.187 268.72 208.014 269.438C207.865 270.155 207.791 270.885 207.791 271.627V272.109C207.791 272.283 207.803 272.443 207.828 272.592C207.878 272.74 207.952 272.889 208.051 273.037C208.15 273.186 208.199 273.322 208.199 273.445C208.199 273.618 208.125 273.779 207.977 273.928C208.15 274.051 208.348 274.188 208.57 274.336C208.793 274.484 208.991 274.645 209.164 274.818C209.362 275.016 209.523 275.214 209.646 275.412C209.77 275.635 209.832 275.87 209.832 276.117C209.832 276.538 209.696 276.835 209.424 277.008C209.152 277.181 208.818 277.317 208.422 277.416C208.051 277.515 207.655 277.602 207.234 277.676C206.839 277.775 206.505 277.936 206.232 278.158H206.121C205.824 278.158 205.602 278.072 205.453 277.898C205.305 277.725 205.082 277.639 204.785 277.639C204.315 276.872 203.993 276.006 203.82 275.041C203.647 274.101 203.561 273.198 203.561 272.332C203.561 271.268 203.66 270.204 203.857 269.141C204.031 268.077 204.253 267.025 204.525 265.986C204.773 264.947 205.045 263.921 205.342 262.906C205.663 261.867 205.96 260.828 206.232 259.789L206.27 259.678C206.27 259.554 206.232 259.467 206.158 259.418C206.109 259.368 206.084 259.294 206.084 259.195C206.084 259.146 206.096 259.121 206.121 259.121C206.195 258.874 206.27 258.639 206.344 258.416C206.443 258.193 206.517 257.946 206.566 257.674C206.715 256.981 206.814 256.276 206.863 255.559C206.938 254.816 206.975 254.087 206.975 253.369C206.999 252.652 207.024 251.934 207.049 251.217C207.098 250.475 207.185 249.745 207.309 249.027C207.507 248.829 207.692 248.619 207.865 248.396C208.038 248.174 208.261 247.976 208.533 247.803C209.028 247.827 209.523 247.902 210.018 248.025C210.512 248.149 210.982 248.347 211.428 248.619C211.725 249.683 211.923 250.747 212.021 251.811C212.145 252.874 212.343 253.938 212.615 255.002V255.113C212.615 255.237 212.677 255.299 212.801 255.299C212.949 255.274 213.061 255.311 213.135 255.41C213.085 255.484 213.048 255.571 213.023 255.67C213.023 255.769 213.023 255.868 213.023 255.967V256.598C213.073 256.796 213.135 257.006 213.209 257.229C213.283 257.451 213.444 257.587 213.691 257.637C213.815 258.428 214.001 259.158 214.248 259.826C214.495 260.494 214.78 261.137 215.102 261.756C215.423 262.374 215.77 262.993 216.141 263.611C216.512 264.205 216.895 264.836 217.291 265.504C217.91 265.974 218.441 266.518 218.887 267.137C219.332 267.73 219.777 268.312 220.223 268.881C220.693 269.425 221.212 269.908 221.781 270.328C222.375 270.749 223.142 271.008 224.082 271.107C224.206 271.008 224.292 270.872 224.342 270.699L224.527 270.18C224.602 270.007 224.676 269.858 224.75 269.734C224.849 269.586 224.985 269.475 225.158 269.4C225.208 268.708 225.257 268.003 225.307 267.285C225.381 266.568 225.542 265.887 225.789 265.244C225.665 265.021 225.604 264.749 225.604 264.428C225.604 264.18 225.616 263.945 225.641 263.723C225.69 263.5 225.715 263.277 225.715 263.055C225.715 262.585 225.616 262.201 225.418 261.904C225.418 261.731 225.43 261.558 225.455 261.385C225.48 261.187 225.554 261.001 225.678 260.828C225.48 260.333 225.319 259.814 225.195 259.27C225.096 258.725 225.047 258.169 225.047 257.6C225.047 257.278 225.084 256.944 225.158 256.598C225.01 256.227 224.911 255.794 224.861 255.299L224.713 253.777C224.663 253.258 224.589 252.775 224.49 252.33C224.391 251.885 224.206 251.526 223.934 251.254C224.082 251.031 224.156 250.771 224.156 250.475C224.156 249.98 224.082 249.51 223.934 249.064C223.785 248.619 223.711 248.149 223.711 247.654C223.711 247.308 223.785 246.962 223.934 246.615C224.478 246.64 225.01 246.702 225.529 246.801C226.074 246.875 226.605 246.912 227.125 246.912C227.273 247.11 227.447 247.271 227.645 247.395C227.842 247.518 228.053 247.642 228.275 247.766C228.498 247.865 228.708 247.976 228.906 248.1C229.129 248.223 229.302 248.396 229.426 248.619ZM241.152 267.916C241.029 268.114 240.88 268.299 240.707 268.473C240.534 268.621 240.373 268.782 240.225 268.955C240.051 269.029 239.854 269.066 239.631 269.066C239.433 269.066 239.235 269.066 239.037 269.066C238.864 269.042 238.691 269.042 238.518 269.066C238.369 269.066 238.245 269.116 238.146 269.215C237.949 269.165 237.8 269.079 237.701 268.955C237.602 268.807 237.429 268.72 237.182 268.695C237.083 268.671 236.984 268.671 236.885 268.695C236.514 268.275 236.167 267.829 235.846 267.359C235.549 266.889 235.264 266.444 234.992 266.023C234.967 265.108 234.893 264.18 234.77 263.24C234.745 263.018 234.708 262.795 234.658 262.572C234.609 262.35 234.572 262.139 234.547 261.941C234.547 261.694 234.559 261.459 234.584 261.236C234.633 260.989 234.671 260.766 234.695 260.568C234.794 259.851 234.906 259.146 235.029 258.453C235.153 257.76 235.264 257.055 235.363 256.338C235.462 255.695 235.512 255.027 235.512 254.334C235.512 253.617 235.4 252.949 235.178 252.33L235.141 252.145C235.19 251.947 235.24 251.786 235.289 251.662C235.363 251.514 235.413 251.353 235.438 251.18C235.487 250.908 235.425 250.71 235.252 250.586C235.326 250.388 235.45 250.264 235.623 250.215C235.796 250.141 235.895 249.992 235.92 249.77C235.945 249.671 235.945 249.572 235.92 249.473C236.118 249.398 236.316 249.337 236.514 249.287C236.736 249.213 236.947 249.201 237.145 249.25C237.466 249.299 237.751 249.411 237.998 249.584C238.245 249.732 238.48 249.906 238.703 250.104C239.099 251.291 239.26 252.553 239.186 253.889C239.111 255.2 238.988 256.523 238.814 257.859C238.641 259.195 238.53 260.507 238.48 261.793C238.431 263.055 238.629 264.23 239.074 265.318L239.148 265.355C239.272 265.38 239.371 265.343 239.445 265.244C239.52 265.12 239.618 265.071 239.742 265.096C239.841 265.145 239.903 265.17 239.928 265.17C240.027 265.665 240.188 266.135 240.41 266.58C240.633 267.025 240.88 267.471 241.152 267.916ZM280.377 268.324C280.253 268.72 280.216 269.116 280.266 269.512C280.191 269.611 280.105 269.673 280.006 269.697C279.907 269.722 279.808 269.759 279.709 269.809C279.61 269.833 279.523 269.883 279.449 269.957C279.4 270.007 279.4 270.118 279.449 270.291C278.633 270.34 277.854 270.514 277.111 270.811C276.369 271.107 275.639 271.429 274.922 271.775C274.551 271.652 274.229 271.503 273.957 271.33C273.685 271.157 273.339 271.046 272.918 270.996C272.497 270.155 272.102 269.277 271.73 268.361C271.384 267.421 271.211 266.481 271.211 265.541C271.211 264.848 271.335 264.217 271.582 263.648C271.582 262.906 271.644 262.176 271.768 261.459C271.891 260.742 272.027 260.036 272.176 259.344C272.349 258.626 272.497 257.909 272.621 257.191C272.745 256.474 272.807 255.744 272.807 255.002V254.186C272.757 254.186 272.695 254.247 272.621 254.371C272.547 254.47 272.473 254.594 272.398 254.742C272.349 254.866 272.299 254.99 272.25 255.113C272.201 255.237 272.163 255.311 272.139 255.336C271.718 255.658 271.384 256.066 271.137 256.561C270.914 257.031 270.667 257.476 270.395 257.896C270.048 258.416 269.677 258.923 269.281 259.418C268.91 259.913 268.44 260.296 267.871 260.568V260.643C267.871 260.766 267.834 260.853 267.76 260.902C267.686 260.952 267.673 261.076 267.723 261.273C267.104 261.471 266.523 261.756 265.979 262.127C265.459 262.498 265.026 262.968 264.68 263.537C264.185 263.661 263.715 263.834 263.27 264.057C262.849 264.255 262.416 264.477 261.971 264.725C261.773 264.824 261.562 264.947 261.34 265.096C261.117 265.244 260.895 265.343 260.672 265.393C260.474 265.467 260.202 265.516 259.855 265.541C259.534 265.566 259.188 265.59 258.816 265.615C258.47 265.64 258.124 265.652 257.777 265.652H256.961C256.837 265.652 256.676 265.59 256.479 265.467C256.281 265.343 256.058 265.207 255.811 265.059C255.588 264.91 255.353 264.774 255.105 264.65C254.858 264.502 254.623 264.403 254.4 264.354C254.202 263.71 253.918 263.141 253.547 262.646C253.201 262.127 252.829 261.607 252.434 261.088C252.31 260.494 252.137 259.876 251.914 259.232C251.716 258.589 251.357 258.057 250.838 257.637C250.962 257.464 251.023 257.266 251.023 257.043C251.023 256.771 250.962 256.511 250.838 256.264C250.714 256.016 250.652 255.744 250.652 255.447C250.652 255.249 250.665 255.101 250.689 255.002C250.417 255.299 250.219 255.682 250.096 256.152C249.997 256.598 249.947 257.006 249.947 257.377C249.947 257.674 249.984 257.946 250.059 258.193C249.811 258.54 249.65 258.973 249.576 259.492C249.527 260.012 249.502 260.469 249.502 260.865C249.502 261.36 249.539 261.842 249.613 262.312C249.217 262.708 249.02 263.191 249.02 263.76C249.02 264.081 249.094 264.366 249.242 264.613C249.242 264.712 249.217 264.786 249.168 264.836C249.118 264.885 249.057 264.923 248.982 264.947C248.933 264.972 248.871 265.009 248.797 265.059C248.747 265.083 248.723 265.145 248.723 265.244C248.723 265.368 248.723 265.504 248.723 265.652C248.747 265.801 248.76 265.949 248.76 266.098C248.76 266.444 248.747 266.803 248.723 267.174C248.698 267.545 248.686 267.904 248.686 268.25C248.686 268.967 248.747 269.487 248.871 269.809C249.02 270.105 249.193 270.328 249.391 270.477C249.613 270.625 249.848 270.773 250.096 270.922C250.343 271.07 250.59 271.355 250.838 271.775C250.764 271.998 250.628 272.184 250.43 272.332C250.257 272.456 250.083 272.592 249.91 272.74C249.762 272.864 249.626 273.012 249.502 273.186C249.378 273.359 249.329 273.606 249.354 273.928H249.168C248.846 273.928 248.537 273.977 248.24 274.076C247.943 274.175 247.634 274.225 247.312 274.225C247.238 274.225 247.164 274.212 247.09 274.188C247.016 274.188 246.941 274.188 246.867 274.188L246.496 273.965C246.372 273.891 246.249 273.854 246.125 273.854C246.001 273.854 245.84 273.878 245.643 273.928C245.296 272.814 245.024 271.664 244.826 270.477C244.653 269.289 244.566 268.126 244.566 266.988C244.566 266.865 244.591 266.741 244.641 266.617C244.715 266.469 244.814 266.419 244.938 266.469V265.764C244.938 264.997 244.999 264.255 245.123 263.537C245.271 262.795 245.346 262.028 245.346 261.236C245.346 261.014 245.333 260.791 245.309 260.568C245.309 260.346 245.296 260.135 245.271 259.938C245.395 259.517 245.519 259.096 245.643 258.676C245.791 258.23 245.865 257.773 245.865 257.303C245.865 257.105 245.828 256.87 245.754 256.598C245.952 256.449 246.1 256.264 246.199 256.041C246.298 255.794 246.372 255.534 246.422 255.262C246.471 254.965 246.508 254.68 246.533 254.408C246.558 254.136 246.583 253.889 246.607 253.666C246.855 253.171 246.991 252.639 247.016 252.07C247.04 251.501 247.164 250.969 247.387 250.475C247.362 250.376 247.35 250.202 247.35 249.955C247.35 249.46 247.424 248.965 247.572 248.471C247.745 247.951 248.079 247.555 248.574 247.283C249.02 247.456 249.539 247.543 250.133 247.543C250.702 247.543 251.246 247.456 251.766 247.283C251.914 247.333 252.05 247.395 252.174 247.469C252.298 247.518 252.421 247.58 252.545 247.654C252.693 247.704 252.842 247.753 252.99 247.803C253.139 247.827 253.312 247.827 253.51 247.803C253.757 248.52 253.967 249.25 254.141 249.992C254.339 250.734 254.487 251.489 254.586 252.256C254.635 252.577 254.648 252.924 254.623 253.295C254.623 253.666 254.648 254.012 254.697 254.334C254.722 254.532 254.784 254.717 254.883 254.891C254.982 255.039 255.081 255.212 255.18 255.41C255.279 255.608 255.353 255.831 255.402 256.078C255.477 256.326 255.501 256.635 255.477 257.006C255.749 257.649 256.046 258.268 256.367 258.861C256.714 259.43 257.085 259.999 257.48 260.568C257.703 260.643 257.901 260.742 258.074 260.865C258.247 260.964 258.359 261.137 258.408 261.385C258.631 261.385 258.829 261.422 259.002 261.496L259.633 261.682C260.573 261.385 261.439 260.989 262.23 260.494C263.047 259.999 263.9 259.579 264.791 259.232C265.88 258.169 266.82 256.993 267.611 255.707C268.403 254.396 269.195 253.097 269.986 251.811V250.994C270.135 250.92 270.258 250.833 270.357 250.734C270.481 250.611 270.63 250.524 270.803 250.475C270.827 250.178 270.889 249.893 270.988 249.621C271.112 249.324 271.236 249.052 271.359 248.805C271.508 248.533 271.632 248.273 271.73 248.025C271.829 247.753 271.879 247.469 271.879 247.172C271.879 246.999 271.867 246.85 271.842 246.727C272.213 246.355 272.658 246.17 273.178 246.17C273.673 246.17 274.167 246.294 274.662 246.541C275.182 246.764 275.664 246.974 276.109 247.172C276.382 247.766 276.579 248.396 276.703 249.064C276.852 249.708 276.951 250.376 277 251.068C277.049 251.761 277.074 252.454 277.074 253.146V255.781C277.049 255.979 276.975 256.128 276.852 256.227C276.753 256.301 276.678 256.424 276.629 256.598V256.969C276.629 257.092 276.617 257.216 276.592 257.34C276.592 257.859 276.53 258.404 276.406 258.973C276.283 259.69 276.122 260.42 275.924 261.162C275.751 261.88 275.664 262.609 275.664 263.352C275.664 263.624 275.676 263.896 275.701 264.168C275.726 264.44 275.775 264.712 275.85 264.984C275.726 265.207 275.664 265.492 275.664 265.838C275.664 266.234 275.726 266.605 275.85 266.951C275.998 267.273 276.171 267.594 276.369 267.916C276.715 267.916 277.062 267.904 277.408 267.879C277.755 267.854 278.113 267.842 278.484 267.842C278.831 267.842 279.152 267.879 279.449 267.953C279.746 268.003 280.055 268.126 280.377 268.324ZM309.211 270.291C309.137 270.637 308.976 270.922 308.729 271.145C308.506 271.342 308.234 271.503 307.912 271.627C307.59 271.751 307.257 271.837 306.91 271.887C306.589 271.911 306.292 271.924 306.02 271.924C305.896 271.924 305.772 271.924 305.648 271.924C305.549 271.899 305.438 271.887 305.314 271.887C305.191 271.887 305.129 271.949 305.129 272.072C305.129 272.196 305.067 272.283 304.943 272.332C304.82 272.283 304.696 272.245 304.572 272.221C304.449 272.196 304.325 272.184 304.201 272.184C304.028 272.184 303.855 272.196 303.682 272.221C303.533 272.245 303.385 272.258 303.236 272.258C303.038 272.258 302.89 272.233 302.791 272.184C302.717 272.134 302.643 272.085 302.568 272.035C302.519 271.961 302.457 271.887 302.383 271.812C302.333 271.738 302.247 271.676 302.123 271.627C301.95 271.553 301.801 271.54 301.678 271.59C301.579 271.639 301.418 271.565 301.195 271.367C300.898 271.12 300.639 270.823 300.416 270.477C300.218 270.105 300.02 269.722 299.822 269.326C299.624 268.93 299.414 268.535 299.191 268.139C298.969 267.743 298.709 267.396 298.412 267.1H298.115C297.67 267.1 297.361 267.285 297.188 267.656C297.064 267.582 296.94 267.495 296.816 267.396C296.693 267.273 296.557 267.174 296.408 267.1C295.839 267.273 295.245 267.421 294.627 267.545C294.008 267.669 293.39 267.73 292.771 267.73H292.252C292.104 267.73 291.943 267.706 291.77 267.656C291.522 267.755 291.299 267.879 291.102 268.027C290.904 268.151 290.681 268.213 290.434 268.213C290.285 268.213 290.112 268.163 289.914 268.064C289.766 268.064 289.691 268.126 289.691 268.25C289.716 268.374 289.642 268.436 289.469 268.436H289.135C288.788 268.436 288.442 268.448 288.096 268.473C287.774 268.497 287.44 268.51 287.094 268.51C286.624 268.51 286.141 268.448 285.646 268.324C285.523 268.398 285.387 268.436 285.238 268.436C285.139 268.485 285.065 268.572 285.016 268.695C284.966 268.794 284.917 268.893 284.867 268.992C284.818 269.066 284.743 269.141 284.645 269.215C284.57 269.264 284.459 269.277 284.311 269.252C284.261 269.549 284.137 269.784 283.939 269.957C283.742 270.13 283.643 270.39 283.643 270.736C283.37 270.885 283.148 271.07 282.975 271.293C282.801 271.516 282.628 271.751 282.455 271.998C282.282 272.245 282.096 272.48 281.898 272.703C281.725 272.926 281.503 273.099 281.23 273.223C281.107 273.371 281.07 273.606 281.119 273.928C280.847 274.15 280.513 274.348 280.117 274.521C279.721 274.695 279.35 274.781 279.004 274.781C278.286 274.781 277.792 274.398 277.52 273.631C277.52 273.383 277.544 273.124 277.594 272.852C277.618 272.555 277.668 272.283 277.742 272.035C277.816 271.763 277.928 271.528 278.076 271.33C278.225 271.107 278.435 270.947 278.707 270.848C278.707 270.625 278.633 270.477 278.484 270.402C278.336 270.303 278.274 270.143 278.299 269.92C278.967 269.598 279.548 269.178 280.043 268.658C280.538 268.139 280.983 267.594 281.379 267.025C281.799 266.432 282.22 265.838 282.641 265.244C283.061 264.65 283.531 264.118 284.051 263.648V262.869C284.793 262.077 285.275 261.187 285.498 260.197C285.77 260.148 285.943 260.024 286.018 259.826C286.117 259.628 286.166 259.393 286.166 259.121C286.29 259.121 286.364 259.072 286.389 258.973C286.438 258.849 286.549 258.812 286.723 258.861C286.945 258.268 287.193 257.723 287.465 257.229C287.737 256.734 288.009 256.239 288.281 255.744C288.553 255.225 288.788 254.693 288.986 254.148C289.209 253.604 289.37 252.998 289.469 252.33C289.815 252.305 290.001 252.145 290.025 251.848C290.075 251.526 290.124 251.242 290.174 250.994C290.545 250.648 290.817 250.24 290.99 249.77C291.188 249.299 291.361 248.817 291.51 248.322C291.658 247.803 291.819 247.296 291.992 246.801C292.19 246.281 292.462 245.824 292.809 245.428V245.316C292.809 245.193 292.759 245.118 292.66 245.094C292.561 245.044 292.512 244.958 292.512 244.834C292.536 244.809 292.549 244.785 292.549 244.76C292.846 244.636 293.068 244.438 293.217 244.166C293.365 243.869 293.588 243.659 293.885 243.535C294.404 243.956 294.862 244.215 295.258 244.314C295.654 244.389 296.173 244.451 296.816 244.5C297.138 244.846 297.311 245.267 297.336 245.762C297.385 246.232 297.472 246.702 297.596 247.172C297.794 247.964 298.004 248.743 298.227 249.51C298.474 250.252 298.66 251.019 298.783 251.811C298.857 252.281 298.993 252.726 299.191 253.146C299.389 253.567 299.525 254 299.6 254.445C299.649 254.792 299.649 255.188 299.6 255.633C299.55 256.053 299.6 256.424 299.748 256.746L300.008 257.34C300.132 257.612 300.23 257.896 300.305 258.193C300.404 258.49 300.49 258.787 300.564 259.084C300.762 259.826 300.936 260.63 301.084 261.496C301.257 262.337 301.517 263.104 301.863 263.797C301.987 264.044 302.173 264.217 302.42 264.316C302.692 264.415 302.989 264.49 303.311 264.539C303.632 264.564 303.941 264.576 304.238 264.576C304.56 264.551 304.832 264.539 305.055 264.539H305.426C305.574 264.539 305.723 264.564 305.871 264.613C305.97 264.811 306.02 264.984 306.02 265.133C306.02 265.43 305.921 265.665 305.723 265.838C305.525 266.011 305.426 266.209 305.426 266.432C305.426 266.555 305.475 266.691 305.574 266.84C305.475 266.815 305.327 266.803 305.129 266.803C304.56 266.803 304.003 266.902 303.459 267.1C303.657 267.52 303.917 267.879 304.238 268.176C304.585 268.448 304.943 268.708 305.314 268.955C305.562 268.757 305.822 268.658 306.094 268.658C306.391 268.658 306.663 268.732 306.91 268.881C307.182 269.005 307.467 269.066 307.764 269.066C307.986 269.066 308.147 269.029 308.246 268.955C308.444 269.178 308.605 269.413 308.729 269.66C308.852 269.883 309.013 270.093 309.211 270.291ZM297.596 264.354C297.546 263.933 297.46 263.636 297.336 263.463C297.237 263.265 297.15 263.03 297.076 262.758C296.977 262.411 296.903 262.04 296.854 261.645C296.829 261.249 296.779 260.865 296.705 260.494C296.532 259.653 296.334 258.812 296.111 257.971C295.913 257.13 295.654 256.313 295.332 255.521C295.431 255.373 295.48 255.237 295.48 255.113V255.002C295.258 254.755 295.097 254.458 294.998 254.111C294.899 253.74 294.8 253.382 294.701 253.035C294.627 252.664 294.516 252.33 294.367 252.033C294.243 251.712 294.033 251.452 293.736 251.254C293.662 251.402 293.625 251.576 293.625 251.773C293.625 251.947 293.637 252.107 293.662 252.256C293.712 252.404 293.736 252.565 293.736 252.738C293.489 252.862 293.303 253.06 293.18 253.332C293.081 253.579 292.908 253.777 292.66 253.926C292.462 254.717 292.178 255.472 291.807 256.189C291.436 256.882 291.04 257.575 290.619 258.268C290.223 258.96 289.84 259.665 289.469 260.383C289.098 261.076 288.801 261.805 288.578 262.572C288.257 262.795 288.034 263.079 287.91 263.426C287.811 263.772 287.762 264.118 287.762 264.465C287.984 264.589 288.232 264.663 288.504 264.688C288.801 264.688 289.085 264.688 289.357 264.688C289.63 264.688 289.889 264.712 290.137 264.762C290.384 264.811 290.607 264.935 290.805 265.133C291.126 265.034 291.473 264.972 291.844 264.947C292.24 264.898 292.561 264.786 292.809 264.613C293.303 264.786 293.835 264.873 294.404 264.873C294.701 264.873 294.986 264.848 295.258 264.799C295.555 264.749 295.839 264.688 296.111 264.613C296.334 264.663 296.507 264.749 296.631 264.873C296.755 264.972 296.94 265.009 297.188 264.984C297.311 264.885 297.385 264.786 297.41 264.688C297.435 264.564 297.497 264.452 297.596 264.354ZM338.973 249.139C338.874 249.46 338.713 249.757 338.49 250.029L337.859 250.809C337.661 251.056 337.488 251.328 337.34 251.625C337.216 251.897 337.179 252.219 337.229 252.59C337.179 252.59 337.117 252.59 337.043 252.59C336.969 252.565 336.907 252.553 336.857 252.553C336.462 252.553 336.152 252.652 335.93 252.85C335.732 253.023 335.46 253.171 335.113 253.295C335.064 253.146 335.002 253.01 334.928 252.887C334.854 252.738 334.742 252.639 334.594 252.59C334 252.714 333.406 252.812 332.812 252.887C332.219 252.936 331.625 253.01 331.031 253.109C330.759 253.159 330.487 253.233 330.215 253.332C329.943 253.406 329.658 253.48 329.361 253.555C329.213 253.604 329.052 253.629 328.879 253.629C328.706 253.604 328.533 253.604 328.359 253.629C327.766 253.654 327.122 253.703 326.43 253.777C325.737 253.827 325.118 254.012 324.574 254.334C324.327 254.285 324.067 254.247 323.795 254.223C323.523 254.198 323.251 254.186 322.979 254.186C322.385 254.186 321.729 254.247 321.012 254.371C320.319 254.47 319.701 254.68 319.156 255.002C319.033 254.952 318.896 254.915 318.748 254.891C318.624 254.866 318.476 254.854 318.303 254.854C318.253 254.854 318.216 254.866 318.191 254.891C318.167 254.891 318.13 254.891 318.08 254.891C318.055 255.113 318.08 255.336 318.154 255.559C318.253 255.757 318.414 255.917 318.637 256.041C318.538 256.313 318.488 256.61 318.488 256.932C318.488 257.352 318.513 257.773 318.562 258.193C318.637 258.614 318.674 259.035 318.674 259.455C318.674 259.925 318.612 260.296 318.488 260.568C318.736 261.311 318.859 262.102 318.859 262.943C318.859 263.24 318.835 263.537 318.785 263.834C318.76 264.106 318.748 264.403 318.748 264.725C318.748 264.997 318.847 265.219 319.045 265.393C319.243 265.541 319.342 265.751 319.342 266.023C319.342 266.122 319.317 266.221 319.268 266.32C319.614 266.246 319.948 266.147 320.27 266.023C320.591 265.875 320.925 265.801 321.271 265.801C321.469 265.801 321.655 265.838 321.828 265.912C322.026 265.986 322.199 266.085 322.348 266.209C322.323 266.333 322.298 266.469 322.273 266.617C322.273 266.766 322.273 266.914 322.273 267.062C322.273 267.335 322.273 267.594 322.273 267.842C322.298 268.064 322.323 268.312 322.348 268.584C322.15 268.93 321.915 269.24 321.643 269.512C321.395 269.784 321.222 270.13 321.123 270.551C320.752 270.551 320.418 270.637 320.121 270.811C319.849 270.959 319.589 271.132 319.342 271.33C319.094 271.503 318.847 271.676 318.6 271.85C318.352 271.998 318.08 272.072 317.783 272.072C317.412 272.072 317.152 272.023 317.004 271.924C316.855 271.8 316.744 271.676 316.67 271.553C316.596 271.429 316.521 271.318 316.447 271.219C316.398 271.12 316.274 271.083 316.076 271.107C316.027 270.786 315.928 270.489 315.779 270.217C315.631 269.92 315.47 269.635 315.297 269.363C315.148 269.091 314.988 268.819 314.814 268.547C314.666 268.25 314.555 267.953 314.48 267.656C314.332 267.013 314.27 266.345 314.295 265.652C314.32 264.96 314.208 264.292 313.961 263.648C314.01 263.302 314.048 262.956 314.072 262.609C314.097 262.238 314.109 261.88 314.109 261.533C314.109 260.84 314.085 260.16 314.035 259.492C314.01 258.799 313.986 258.094 313.961 257.377C313.788 257.154 313.676 256.907 313.627 256.635C313.602 256.338 313.577 256.053 313.553 255.781C313.479 255.707 313.392 255.633 313.293 255.559C313.219 255.484 313.169 255.385 313.145 255.262C312.947 255.212 312.798 255.188 312.699 255.188C312.353 255.188 312.056 255.274 311.809 255.447C311.586 255.596 311.376 255.67 311.178 255.67C310.98 255.67 310.794 255.645 310.621 255.596C310.448 255.546 310.275 255.521 310.102 255.521C309.953 255.521 309.867 255.559 309.842 255.633C309.842 255.682 309.792 255.732 309.693 255.781C309.619 255.831 309.446 255.88 309.174 255.93C308.902 255.979 308.592 256.029 308.246 256.078C307.924 256.103 307.603 256.128 307.281 256.152C306.984 256.177 306.786 256.189 306.688 256.189C306.292 256.189 305.995 256.115 305.797 255.967C305.574 255.794 305.314 255.608 305.018 255.41C305.067 255.262 305.092 255.163 305.092 255.113C305.092 254.866 305.018 254.668 304.869 254.52C304.721 254.346 304.646 254.198 304.646 254.074C304.646 253.802 304.758 253.592 304.98 253.443C305.178 253.295 305.29 253.06 305.314 252.738C305.883 252.491 306.465 252.305 307.059 252.182C307.652 252.058 308.258 251.959 308.877 251.885C309.495 251.811 310.102 251.724 310.695 251.625C311.314 251.526 311.92 251.365 312.514 251.143C312.687 251.167 312.848 251.192 312.996 251.217C313.169 251.217 313.342 251.217 313.516 251.217C314.258 251.217 314.988 251.143 315.705 250.994C316.447 250.821 317.202 250.734 317.969 250.734C318.167 250.734 318.365 250.747 318.562 250.771C318.76 250.796 318.958 250.833 319.156 250.883C320.146 250.734 321.123 250.574 322.088 250.4C323.077 250.227 324.092 250.079 325.131 249.955C325.626 249.906 326.108 249.868 326.578 249.844C327.073 249.794 327.568 249.732 328.062 249.658C328.236 249.633 328.359 249.596 328.434 249.547C328.533 249.473 328.582 249.337 328.582 249.139C328.805 249.238 329.052 249.287 329.324 249.287C329.745 249.287 330.153 249.213 330.549 249.064C330.945 248.916 331.353 248.842 331.773 248.842C331.872 248.842 331.959 248.854 332.033 248.879C332.107 248.879 332.182 248.879 332.256 248.879C332.429 248.879 332.516 248.805 332.516 248.656C332.54 248.483 332.664 248.372 332.887 248.322C333.06 248.273 333.307 248.236 333.629 248.211C333.951 248.186 334.285 248.161 334.631 248.137C335.002 248.087 335.336 248.038 335.633 247.988C335.954 247.914 336.189 247.815 336.338 247.691L336.598 247.283C337.043 247.308 337.365 247.506 337.562 247.877C337.785 248.223 337.909 248.607 337.934 249.027C338.033 249.126 338.169 249.176 338.342 249.176C338.54 249.151 338.713 249.139 338.861 249.139H338.973ZM341.793 267.916C341.669 268.114 341.521 268.299 341.348 268.473C341.174 268.621 341.014 268.782 340.865 268.955C340.692 269.029 340.494 269.066 340.271 269.066C340.074 269.066 339.876 269.066 339.678 269.066C339.505 269.042 339.331 269.042 339.158 269.066C339.01 269.066 338.886 269.116 338.787 269.215C338.589 269.165 338.441 269.079 338.342 268.955C338.243 268.807 338.07 268.72 337.822 268.695C337.723 268.671 337.624 268.671 337.525 268.695C337.154 268.275 336.808 267.829 336.486 267.359C336.189 266.889 335.905 266.444 335.633 266.023C335.608 265.108 335.534 264.18 335.41 263.24C335.385 263.018 335.348 262.795 335.299 262.572C335.249 262.35 335.212 262.139 335.188 261.941C335.188 261.694 335.2 261.459 335.225 261.236C335.274 260.989 335.311 260.766 335.336 260.568C335.435 259.851 335.546 259.146 335.67 258.453C335.794 257.76 335.905 257.055 336.004 256.338C336.103 255.695 336.152 255.027 336.152 254.334C336.152 253.617 336.041 252.949 335.818 252.33L335.781 252.145C335.831 251.947 335.88 251.786 335.93 251.662C336.004 251.514 336.053 251.353 336.078 251.18C336.128 250.908 336.066 250.71 335.893 250.586C335.967 250.388 336.09 250.264 336.264 250.215C336.437 250.141 336.536 249.992 336.561 249.77C336.585 249.671 336.585 249.572 336.561 249.473C336.758 249.398 336.956 249.337 337.154 249.287C337.377 249.213 337.587 249.201 337.785 249.25C338.107 249.299 338.391 249.411 338.639 249.584C338.886 249.732 339.121 249.906 339.344 250.104C339.74 251.291 339.9 252.553 339.826 253.889C339.752 255.2 339.628 256.523 339.455 257.859C339.282 259.195 339.171 260.507 339.121 261.793C339.072 263.055 339.27 264.23 339.715 265.318L339.789 265.355C339.913 265.38 340.012 265.343 340.086 265.244C340.16 265.12 340.259 265.071 340.383 265.096C340.482 265.145 340.544 265.17 340.568 265.17C340.667 265.665 340.828 266.135 341.051 266.58C341.273 267.025 341.521 267.471 341.793 267.916ZM368.809 251.514C368.66 251.736 368.574 251.984 368.549 252.256C368.524 252.528 368.512 252.775 368.512 252.998C368.512 253.295 368.512 253.592 368.512 253.889C368.536 254.161 368.549 254.433 368.549 254.705V255.262C368.499 255.435 368.425 255.608 368.326 255.781C368.227 255.954 368.153 256.128 368.104 256.301C367.757 257.216 367.584 258.132 367.584 259.047V259.121C367.46 259.418 367.337 259.69 367.213 259.938C367.114 260.185 367.015 260.432 366.916 260.68C366.817 260.902 366.743 261.15 366.693 261.422C366.644 261.669 366.632 261.966 366.656 262.312C366.31 263.178 365.852 263.97 365.283 264.688C364.714 265.38 364.158 266.098 363.613 266.84C363.094 267.038 362.611 267.298 362.166 267.619C361.745 267.941 361.337 268.299 360.941 268.695C360.174 268.943 359.42 269.227 358.678 269.549C357.936 269.87 357.268 270.303 356.674 270.848C356.204 270.897 355.734 270.971 355.264 271.07C354.794 271.169 354.336 271.318 353.891 271.516H353.445C353.223 271.516 353.062 271.466 352.963 271.367C352.641 271.54 352.307 271.664 351.961 271.738C351.615 271.788 351.268 271.812 350.922 271.812C350.477 271.812 350.031 271.788 349.586 271.738C349.165 271.664 348.732 271.59 348.287 271.516C348.04 271.169 347.693 270.91 347.248 270.736C346.803 270.538 346.407 270.353 346.061 270.18C345.343 269.19 344.824 268.238 344.502 267.322C344.18 266.382 343.846 265.331 343.5 264.168C343.549 263.822 343.636 263.488 343.76 263.166C343.883 262.82 343.933 262.449 343.908 262.053C344.354 260.766 344.935 259.604 345.652 258.564C346.395 257.501 347.236 256.486 348.176 255.521C348.176 255.373 348.201 255.249 348.25 255.15C348.324 255.051 348.337 254.903 348.287 254.705C348.312 254.73 348.361 254.742 348.436 254.742C348.633 254.742 348.757 254.693 348.807 254.594C348.856 254.47 348.868 254.334 348.844 254.186C349.734 253.617 350.538 252.961 351.256 252.219C351.998 251.477 352.839 250.858 353.779 250.363C353.854 250.141 353.977 249.955 354.15 249.807C354.324 249.658 354.46 249.485 354.559 249.287C355.35 249.064 356.068 248.73 356.711 248.285C357.354 247.84 358.035 247.444 358.752 247.098C359.148 246.875 359.519 246.727 359.865 246.652C360.236 246.553 360.632 246.454 361.053 246.355C361.201 246.306 361.337 246.269 361.461 246.244C361.585 246.219 361.721 246.207 361.869 246.207C362.314 246.207 362.747 246.294 363.168 246.467C363.589 246.615 364.021 246.689 364.467 246.689C364.59 246.689 364.689 246.689 364.764 246.689C364.863 246.665 364.962 246.64 365.061 246.615C365.481 247.135 366.013 247.531 366.656 247.803C366.805 248.174 366.978 248.495 367.176 248.768C367.398 249.04 367.621 249.312 367.844 249.584C368.066 249.831 368.264 250.116 368.438 250.438C368.635 250.734 368.759 251.093 368.809 251.514ZM365.098 253.443C365.098 253.32 365.085 253.208 365.061 253.109C364.813 253.035 364.578 252.936 364.355 252.812C364.133 252.689 363.885 252.627 363.613 252.627C363.44 252.627 363.267 252.664 363.094 252.738C363.069 252.565 362.995 252.441 362.871 252.367C362.772 252.293 362.648 252.231 362.5 252.182C362.376 252.107 362.24 252.058 362.092 252.033C361.968 251.984 361.857 251.91 361.758 251.811C361.684 251.613 361.597 251.415 361.498 251.217C361.424 250.994 361.275 250.833 361.053 250.734C360.83 250.957 360.57 251.143 360.273 251.291C359.977 251.415 359.667 251.538 359.346 251.662C359.049 251.786 358.752 251.934 358.455 252.107C358.183 252.281 357.948 252.491 357.75 252.738H357.082C356.934 253.01 356.723 253.221 356.451 253.369C356.179 253.493 355.944 253.678 355.746 253.926C355.35 254.124 354.979 254.371 354.633 254.668C354.311 254.94 353.99 255.237 353.668 255.559C353.346 255.855 353.025 256.165 352.703 256.486C352.406 256.808 352.085 257.105 351.738 257.377C351.417 258.07 351.058 258.676 350.662 259.195C350.291 259.69 349.932 260.197 349.586 260.717C349.264 261.236 348.98 261.805 348.732 262.424C348.51 263.018 348.398 263.76 348.398 264.65V265.021C348.398 265.145 348.411 265.269 348.436 265.393C348.757 265.739 349.017 266.11 349.215 266.506C349.438 266.902 349.796 267.186 350.291 267.359C350.786 267.557 351.305 267.644 351.85 267.619C352.419 267.594 352.963 267.656 353.482 267.805C354.67 267.582 355.808 267.223 356.896 266.729C358.01 266.209 359.061 265.59 360.051 264.873C360.199 264.749 360.372 264.626 360.57 264.502C360.768 264.354 360.929 264.205 361.053 264.057C361.176 263.933 361.275 263.797 361.35 263.648C361.449 263.5 361.548 263.364 361.646 263.24C361.844 262.919 362.067 262.597 362.314 262.275C362.562 261.954 362.822 261.657 363.094 261.385C363.217 260.84 363.378 260.321 363.576 259.826C363.774 259.307 363.972 258.799 364.17 258.305C364.368 257.81 364.529 257.303 364.652 256.783C364.801 256.264 364.875 255.719 364.875 255.15C364.875 255.027 364.863 254.891 364.838 254.742C364.838 254.594 364.826 254.458 364.801 254.334C364.999 254.062 365.098 253.765 365.098 253.443ZM395.787 248.619C395.738 248.916 395.663 249.176 395.564 249.398C395.49 249.596 395.478 249.868 395.527 250.215C395.28 250.24 395.082 250.326 394.934 250.475C394.81 250.598 394.699 250.747 394.6 250.92C394.525 251.093 394.439 251.279 394.34 251.477C394.266 251.65 394.167 251.811 394.043 251.959C394.241 252.85 394.352 253.753 394.377 254.668C394.402 255.583 394.464 256.486 394.562 257.377C394.686 258.515 394.872 259.641 395.119 260.754C395.391 261.842 395.527 262.956 395.527 264.094C395.527 264.44 395.515 264.762 395.49 265.059C395.49 265.355 395.49 265.665 395.49 265.986C395.49 266.184 395.49 266.395 395.49 266.617C395.515 266.815 395.527 267.013 395.527 267.211C395.527 267.928 395.428 268.646 395.23 269.363C395.057 270.081 394.921 270.798 394.822 271.516C394.525 271.788 394.266 272.085 394.043 272.406C393.845 272.728 393.635 273.025 393.412 273.297C393.189 273.569 392.93 273.804 392.633 274.002C392.336 274.225 391.965 274.373 391.52 274.447C391.445 274.695 391.297 274.88 391.074 275.004C390.876 275.128 390.703 275.301 390.555 275.523H390.48C389.862 275.523 389.33 275.437 388.885 275.264C388.439 275.09 388.019 274.893 387.623 274.67C387.252 274.447 386.868 274.212 386.473 273.965C386.077 273.717 385.619 273.52 385.1 273.371C384.407 272.802 383.776 272.184 383.207 271.516C382.638 270.823 381.995 270.204 381.277 269.66C381.104 269.165 380.869 268.757 380.572 268.436C380.3 268.114 380.028 267.743 379.756 267.322C379.632 267.149 379.533 266.988 379.459 266.84C379.41 266.691 379.335 266.518 379.236 266.32C379.162 266.122 379.038 265.986 378.865 265.912C378.717 265.838 378.581 265.751 378.457 265.652C378.259 264.885 377.975 264.18 377.604 263.537C377.232 262.894 376.799 262.275 376.305 261.682C376.156 261.954 376.033 262.251 375.934 262.572C375.859 262.869 375.785 263.178 375.711 263.5C375.637 263.797 375.538 264.106 375.414 264.428C375.315 264.725 375.179 264.997 375.006 265.244V265.355C375.006 265.479 375.055 265.553 375.154 265.578C375.253 265.603 375.303 265.677 375.303 265.801C375.303 265.826 375.29 265.85 375.266 265.875C375.266 265.9 375.266 265.924 375.266 265.949C375.142 266.048 375.043 266.172 374.969 266.32C374.919 266.469 374.796 266.555 374.598 266.58C374.622 266.704 374.635 266.827 374.635 266.951V267.285C374.635 268.003 374.548 268.72 374.375 269.438C374.227 270.155 374.152 270.885 374.152 271.627V272.109C374.152 272.283 374.165 272.443 374.189 272.592C374.239 272.74 374.313 272.889 374.412 273.037C374.511 273.186 374.561 273.322 374.561 273.445C374.561 273.618 374.486 273.779 374.338 273.928C374.511 274.051 374.709 274.188 374.932 274.336C375.154 274.484 375.352 274.645 375.525 274.818C375.723 275.016 375.884 275.214 376.008 275.412C376.132 275.635 376.193 275.87 376.193 276.117C376.193 276.538 376.057 276.835 375.785 277.008C375.513 277.181 375.179 277.317 374.783 277.416C374.412 277.515 374.016 277.602 373.596 277.676C373.2 277.775 372.866 277.936 372.594 278.158H372.482C372.186 278.158 371.963 278.072 371.814 277.898C371.666 277.725 371.443 277.639 371.146 277.639C370.676 276.872 370.355 276.006 370.182 275.041C370.008 274.101 369.922 273.198 369.922 272.332C369.922 271.268 370.021 270.204 370.219 269.141C370.392 268.077 370.615 267.025 370.887 265.986C371.134 264.947 371.406 263.921 371.703 262.906C372.025 261.867 372.322 260.828 372.594 259.789L372.631 259.678C372.631 259.554 372.594 259.467 372.52 259.418C372.47 259.368 372.445 259.294 372.445 259.195C372.445 259.146 372.458 259.121 372.482 259.121C372.557 258.874 372.631 258.639 372.705 258.416C372.804 258.193 372.878 257.946 372.928 257.674C373.076 256.981 373.175 256.276 373.225 255.559C373.299 254.816 373.336 254.087 373.336 253.369C373.361 252.652 373.385 251.934 373.41 251.217C373.46 250.475 373.546 249.745 373.67 249.027C373.868 248.829 374.053 248.619 374.227 248.396C374.4 248.174 374.622 247.976 374.895 247.803C375.389 247.827 375.884 247.902 376.379 248.025C376.874 248.149 377.344 248.347 377.789 248.619C378.086 249.683 378.284 250.747 378.383 251.811C378.507 252.874 378.704 253.938 378.977 255.002V255.113C378.977 255.237 379.038 255.299 379.162 255.299C379.311 255.274 379.422 255.311 379.496 255.41C379.447 255.484 379.41 255.571 379.385 255.67C379.385 255.769 379.385 255.868 379.385 255.967V256.598C379.434 256.796 379.496 257.006 379.57 257.229C379.645 257.451 379.805 257.587 380.053 257.637C380.176 258.428 380.362 259.158 380.609 259.826C380.857 260.494 381.141 261.137 381.463 261.756C381.785 262.374 382.131 262.993 382.502 263.611C382.873 264.205 383.257 264.836 383.652 265.504C384.271 265.974 384.803 266.518 385.248 267.137C385.693 267.73 386.139 268.312 386.584 268.881C387.054 269.425 387.574 269.908 388.143 270.328C388.736 270.749 389.503 271.008 390.443 271.107C390.567 271.008 390.654 270.872 390.703 270.699L390.889 270.18C390.963 270.007 391.037 269.858 391.111 269.734C391.21 269.586 391.346 269.475 391.52 269.4C391.569 268.708 391.618 268.003 391.668 267.285C391.742 266.568 391.903 265.887 392.15 265.244C392.027 265.021 391.965 264.749 391.965 264.428C391.965 264.18 391.977 263.945 392.002 263.723C392.051 263.5 392.076 263.277 392.076 263.055C392.076 262.585 391.977 262.201 391.779 261.904C391.779 261.731 391.792 261.558 391.816 261.385C391.841 261.187 391.915 261.001 392.039 260.828C391.841 260.333 391.68 259.814 391.557 259.27C391.458 258.725 391.408 258.169 391.408 257.6C391.408 257.278 391.445 256.944 391.52 256.598C391.371 256.227 391.272 255.794 391.223 255.299L391.074 253.777C391.025 253.258 390.951 252.775 390.852 252.33C390.753 251.885 390.567 251.526 390.295 251.254C390.443 251.031 390.518 250.771 390.518 250.475C390.518 249.98 390.443 249.51 390.295 249.064C390.146 248.619 390.072 248.149 390.072 247.654C390.072 247.308 390.146 246.962 390.295 246.615C390.839 246.64 391.371 246.702 391.891 246.801C392.435 246.875 392.967 246.912 393.486 246.912C393.635 247.11 393.808 247.271 394.006 247.395C394.204 247.518 394.414 247.642 394.637 247.766C394.859 247.865 395.07 247.976 395.268 248.1C395.49 248.223 395.663 248.396 395.787 248.619Z" fill="white"/>
<defs>
<linearGradient id="paint0_linear_5_3" x1="223" y1="71.5" x2="244.5" y2="564.5" gradientUnits="userSpaceOnUse">
<stop stop-color="#FDBC75"/>
<stop offset="1" stop-color="#EF6A9F" stop-opacity="0.92"/>
</linearGradient>
</defs>
</svg>
